Hanif_Deep_2_5_grf.mot
version=1
nRows=37
nColumns=19
inDegrees=yes
endheader
time	right_ground_force_vx	right_ground_force_vy	right_ground_force_vz	right_ground_force_px	right_ground_force_py	right_ground_force_pz	right_ground_torque_x	right_ground_torque_y	right_ground_torque_z	left_ground_force_vx	left_ground_force_vy	left_ground_force_vz	left_ground_force_px	left_ground_force_py	left_ground_force_pz	left_ground_torque_x	left_ground_torque_y	left_ground_torque_z
4.150000	-0.200009	244.525000	53.655000	0.204501	0.000000	-1.442710	-15.475400	-0.819821	0.976478	5.674990	288.287000	-63.554200	0.184902	0.000000	-0.955911	15.209000	-3.524450	-3.853430
4.155000	-0.264642	244.294000	53.183800	0.204735	0.000000	-1.443190	-15.342400	-0.884869	1.022570	4.900430	288.377000	-63.131500	0.184880	0.000000	-0.955250	15.029600	-3.453130	-3.869460
4.160000	-0.740006	244.980000	53.232900	0.204974	0.000000	-1.442480	-15.558600	-0.859758	1.099470	4.055040	287.394000	-62.742300	0.185333	0.000000	-0.955242	14.983900	-3.277360	-3.746740
4.165000	-0.533976	244.314000	53.280000	0.204700	0.000000	-1.442890	-15.417600	-0.843961	1.026110	4.047650	287.060000	-62.371100	0.185594	0.000000	-0.955397	15.010200	-3.301580	-3.659330
4.170000	-1.055190	245.963000	53.188300	0.205328	0.000000	-1.442660	-15.576300	-0.786605	1.216200	3.251550	285.465000	-61.620500	0.185260	0.000000	-0.956022	15.110700	-3.300670	-3.728540
4.175000	-1.206520	247.281000	52.717600	0.204798	0.000000	-1.441800	-15.872600	-0.892497	1.066740	2.879730	285.685000	-60.952400	0.185394	0.000000	-0.955916	15.094600	-3.301850	-3.690770
4.180000	-1.477640	245.150000	52.903600	0.205489	0.000000	-1.441910	-15.708100	-0.920996	1.230000	2.656960	283.524000	-60.311700	0.185230	0.000000	-0.955904	14.979000	-3.225450	-3.721070
4.185000	-1.396410	246.555000	52.920500	0.206143	0.000000	-1.441620	-15.871300	-0.895560	1.411500	3.392770	283.075000	-60.336700	0.184963	0.000000	-0.955376	14.800400	-3.248090	-3.795620
4.190000	-1.524090	247.369000	52.470400	0.205958	0.000000	-1.441330	-15.994700	-0.952569	1.359000	3.781540	281.162000	-60.080500	0.184156	0.000000	-0.955355	14.690900	-3.332150	-3.988320
4.195000	-1.718570	246.845000	52.000400	0.206151	0.000000	-1.440770	-16.098000	-0.926355	1.414230	4.820640	279.918000	-59.915600	0.184023	0.000000	-0.955492	14.655700	-3.408680	-4.001780
4.200000	-2.361930	244.471000	51.990000	0.206511	0.000000	-1.438790	-16.426500	-1.049700	1.474340	4.797280	279.359000	-58.859600	0.184049	0.000000	-0.955451	14.614400	-3.415230	-3.987330
4.205000	-2.751770	245.363000	50.670800	0.206926	0.000000	-1.439010	-16.430500	-1.037350	1.595690	5.350550	278.422000	-57.955900	0.183682	0.000000	-0.956083	14.738000	-3.390890	-4.093530
4.210000	-3.627060	244.728000	50.115900	0.206714	0.000000	-1.439510	-16.265200	-1.102990	1.535460	5.068210	276.309000	-57.178800	0.184255	0.000000	-0.955650	14.508000	-3.324360	-3.903930
4.215000	-4.228390	243.756000	49.251400	0.207312	0.000000	-1.439000	-16.321800	-1.272960	1.655210	4.627390	274.996000	-56.348300	0.183924	0.000000	-0.956388	14.645700	-3.273060	-3.986320
4.220000	-4.669980	242.286000	48.736000	0.207264	0.000000	-1.438850	-16.257200	-1.290760	1.634690	4.241120	272.818000	-55.570100	0.183777	0.000000	-0.956952	14.685500	-3.287320	-3.986500
4.225000	-4.366680	239.012000	47.994300	0.208040	0.000000	-1.438430	-16.138500	-1.303870	1.796630	3.441310	272.853000	-54.401700	0.184364	0.000000	-0.956858	14.668200	-3.190060	-3.836820
4.230000	-4.063360	238.835000	47.875800	0.207658	0.000000	-1.437870	-16.259500	-1.307730	1.695770	2.173300	270.087000	-53.146900	0.183644	0.000000	-0.957342	14.659500	-3.158530	-3.990300
4.235000	-4.098900	235.930000	47.233400	0.208458	0.000000	-1.437660	-16.110000	-1.441020	1.843080	0.745877	267.048000	-52.132000	0.184160	0.000000	-0.957326	14.501600	-3.026380	-3.808250
4.240000	-3.178320	234.120000	46.423700	0.208328	0.000000	-1.437500	-16.026900	-1.287150	1.814350	-0.542035	264.650000	-50.419300	0.183865	0.000000	-0.957743	14.492100	-2.918270	-3.863580
4.245000	-3.487430	231.944000	45.410600	0.208585	0.000000	-1.436760	-16.049700	-1.360380	1.848460	-2.059640	258.231000	-49.241600	0.183237	0.000000	-0.957796	14.167300	-2.865490	-3.918320
4.250000	-3.947330	228.227000	43.667500	0.209388	0.000000	-1.436210	-15.914200	-1.425510	2.000910	-3.336510	254.297000	-46.736800	0.182639	0.000000	-0.957159	13.800500	-2.758730	-4.023660
4.255000	-4.629710	225.741000	42.139500	0.208701	0.000000	-1.435480	-15.902900	-1.462480	1.820650	-3.428600	248.082000	-45.387500	0.181733	0.000000	-0.958175	13.717500	-2.780830	-4.140040
4.260000	-5.872520	219.997000	40.001600	0.210164	0.000000	-1.434870	-15.627000	-1.602500	2.094520	-1.943270	242.747000	-44.523500	0.181157	0.000000	-0.957248	13.184700	-2.763970	-4.201610
4.265000	-6.786440	214.661000	38.055000	0.210367	0.000000	-1.434740	-15.273100	-1.642180	2.089880	0.817757	236.923000	-44.102000	0.180183	0.000000	-0.958472	13.135800	-2.885150	-4.329260
4.270000	-7.607640	208.360000	36.133100	0.210662	0.000000	-1.434920	-14.780600	-1.738190	2.080640	3.067480	232.281000	-44.167800	0.180477	0.000000	-0.958957	12.972700	-2.927000	-4.174920
4.275000	-8.482080	198.902000	34.126700	0.210798	0.000000	-1.434260	-14.232700	-1.813420	2.004320	4.076530	227.562000	-42.421800	0.179753	0.000000	-0.959207	12.758100	-2.902880	-4.269190
4.280000	-9.486510	191.957000	32.721800	0.210334	0.000000	-1.434200	-13.739000	-1.887270	1.835640	4.114220	222.618000	-40.699300	0.179339	0.000000	-0.959008	12.436800	-2.782010	-4.286870
4.285000	-9.244330	183.910000	31.580100	0.209440	0.000000	-1.432590	-13.458100	-1.832220	1.589140	2.787120	214.252000	-38.820800	0.180318	0.000000	-0.960853	12.372200	-2.683820	-3.898330
4.290000	-8.874560	176.972000	30.719900	0.209502	0.000000	-1.432610	-12.947100	-1.757920	1.540170	1.368020	209.718000	-36.453100	0.179377	0.000000	-0.960637	12.075800	-2.617100	-4.014470
4.295000	-7.168530	170.096000	30.293200	0.209714	0.000000	-1.432740	-12.418500	-1.845480	1.469500	0.521923	204.002000	-34.275600	0.180186	0.000000	-0.960870	11.801300	-2.428500	-3.753160
4.300000	-6.007450	163.386000	28.987100	0.209118	0.000000	-1.432170	-12.022500	-1.806550	1.294840	-0.836219	197.902000	-32.075600	0.180761	0.000000	-0.961087	11.503300	-2.402650	-3.510190
4.305000	-5.405850	156.569000	28.055300	0.207833	0.000000	-1.431940	-11.560400	-1.656190	1.040750	-1.345230	191.433000	-31.106300	0.180417	0.000000	-0.960488	11.017800	-2.344940	-3.454190
4.310000	-5.292150	147.051000	26.594700	0.207627	0.000000	-1.431190	-10.958800	-1.778770	0.908126	-1.198850	186.518000	-30.153400	0.180439	0.000000	-0.960375	10.712600	-2.268460	-3.366040
4.315000	-5.352240	141.947000	24.608700	0.206927	0.000000	-1.429880	-10.761600	-1.732340	0.783149	0.733861	180.740000	-29.910900	0.180369	0.000000	-0.961042	10.483700	-2.323160	-3.267880
4.320000	-6.037310	136.820000	23.368800	0.207619	0.000000	-1.428710	-10.527300	-1.731910	0.856767	3.331580	178.237000	-30.487600	0.179589	0.000000	-0.960735	10.259100	-2.490560	-3.351360
4.325000	-5.926760	131.083000	23.116000	0.207345	0.000000	-1.427790	-10.205800	-1.660630	0.781672	4.839400	172.588000	-30.498400	0.180501	0.000000	-0.962245	10.180200	-2.480530	-3.082650
4.330000	-5.857130	128.756000	22.707300	0.207452	0.000000	-1.426560	-10.183700	-1.621070	0.785456	5.774190	169.501000	-30.990300	0.181245	0.000000	-0.962988	10.116700	-2.431660	-2.903920
